<?xml version="1.0" encoding="UTF-8" standalone="no"?>
<svg
   viewBox="0 0 1024 1024"
   width="28"
   height="28"
   version="1.1"
   id="svg1"
   sodipodi:docname="icon.svg"
   inkscape:version="1.4.2 (f4327f4, 2025-05-13)"
   xmlns:inkscape="http://www.inkscape.org/namespaces/inkscape"
   xmlns:sodipodi="http://sodipodi.sourceforge.net/DTD/sodipodi-0.dtd"
   xmlns="http://www.w3.org/2000/svg"
   xmlns:svg="http://www.w3.org/2000/svg">
  <defs
     id="defs1" />
  <sodipodi:namedview
     id="namedview1"
     pagecolor="#ffffff"
     bordercolor="#000000"
     borderopacity="0.25"
     inkscape:showpageshadow="2"
     inkscape:pageopacity="0.0"
     inkscape:pagecheckerboard="0"
     inkscape:deskcolor="#d1d1d1"
     inkscape:zoom="40.464286"
     inkscape:cx="13.987643"
     inkscape:cy="14"
     inkscape:window-width="3440"
     inkscape:window-height="1377"
     inkscape:window-x="1912"
     inkscape:window-y="-8"
     inkscape:window-maximized="1"
     inkscape:current-layer="svg1" />
  <path
     id="path1"
     d="M 182.5 64 C 122.028 64 73 114.144 73 176 L 73 848 C 73 909.856 122.028 960 182.5 960 L 338.21429 960 C 321.19629 941.467 307.49186 919.712 298.14286 896 L 190.71429 896 C 161.06829 896 137 871.41486 137 841.14286 L 137 182.85714 C 137 152.58514 161.03629 128 190.71429 128 L 498.14286 128 L 498.14286 283.42857 C 498.14286 318.77457 526.79686 347.42857 562.14286 347.42857 L 713 347.42857 L 713 452.5 C 735.29382 456.87926 756.84582 464.44041 777 474.92857 L 777 261.14286 L 589.78571 64 L 182.5 64 z M 549 128 L 713 288 L 575.78571 288 C 560.98571 288 549 276.29614 549 261.85714 L 549 128 z M 225.71429 352 C 210.70629 353.728 199.73486 368.29086 201.14286 384.64286 C 200.43886 400.54686 211.18629 414.304 225.71429 416 L 428.28571 416 C 442.81371 414.304 453.59314 400.54686 452.85714 384.64286 C 454.26514 368.29086 443.32571 353.728 428.28571 352 L 225.71429 352 z M 665.85714 507 C 602.29433 507.00016 544.84635 539.70755 511.57143 591.57143 C 509.72643 591.45143 507.852 591.38314 506 591.35714 L 505.78571 591.35714 L 505.57143 591.35714 C 445.97043 591.37014 397.65686 639.69371 397.64286 699.28571 C 397.64351 702.52688 397.81705 705.70382 398.14286 708.92857 C 366.28286 735.35857 347 774.55371 347 817.28571 C 347 884.51871 394.16 945.497 457 960 L 826.5 960 C 898.742 945.206 951 877.03357 951 800.42857 C 951 731.95657 907.22786 672.67157 844.64286 650.92857 C 826.34189 568.08273 752.99992 507.00023 665.85714 507 z M 225.35714 512 C 211.18114 515.072 201 528.448 201 544 C 201 559.552 211.14914 572.928 225.35714 576 L 392.92857 576 C 416.75957 555.4 446.73029 541.682 479.71429 538 C 487.12141 528.74271 495.24097 520.06775 503.92857 512 L 225.35714 512 z M 656.5 607.92857 A 31.085699 31.085699 0 0 1 687.5 639.14286 L 687.14286 717.42857 L 765.42857 717.71429 A 31.085699 31.085699 0 0 1 796.35714 748.92857 A 31.085699 31.085699 0 0 1 765.14286 779.92857 L 686.92857 779.57143 L 686.57143 857.85714 A 31.085699 31.085699 0 0 1 655.35714 888.78571 A 31.085699 31.085699 0 0 1 624.42857 857.57143 L 624.71429 779.35714 L 546.42857 779 A 31.085699 31.085699 0 0 1 515.5 747.78571 A 31.085699 31.085699 0 0 1 546.71429 716.85714 L 625 717.14286 L 625.28571 638.85714 A 31.085699 31.085699 0 0 1 656.5 607.92857 z M 209.78571 672 C 204.67771 675.072 201 688.448 201 704 C 201 719.552 204.66571 732.928 209.78571 736 L 304 736 C 312.72778 718.31065 324.11676 702.07537 337.71429 687.78571 C 338.0258 682.50911 338.59944 677.22035 339.42857 672 L 209.78571 672 z " />
</svg>
